HIERARCHY
ROOT root
{
	OFFSET 0.000000 0.000000 0.000000
	CHANNELS 6 Xposition Yposition Zposition Zrotation Yrotation Xrotation
	JOINT lhip
	{
		OFFSET 0.058581 -0.082280 -0.017664
		CHANNELS 3 Zrotation Yrotation Xrotation
		JOINT lknee
		{
			OFFSET 0.043451 -0.386469 0.008037
			CHANNELS 3 Zrotation Yrotation Xrotation
			JOINT lankle
			{
				OFFSET -0.014790 -0.426874 -0.037428
				CHANNELS 3 Zrotation Yrotation Xrotation
				JOINT ltoe
				{
					OFFSET 0.041054 -0.060286 0.122042
					CHANNELS 3 Zrotation Yrotation Xrotation
					End Site
					{
						OFFSET 0.000000 0.000000 0.000000
					}
				}
			}
		}
	}
	JOINT rhip
	{
		OFFSET -0.060310 -0.090513 -0.013543
		CHANNELS 3 Zrotation Yrotation Xrotation
		JOINT rknee
		{
			OFFSET -0.043257 -0.383688 -0.004843
			CHANNELS 3 Zrotation Yrotation Xrotation
			JOINT rankle
			{
				OFFSET 0.019056 -0.420046 -0.034562
				CHANNELS 3 Zrotation Yrotation Xrotation
				JOINT rtoe
				{
					OFFSET -0.034840 -0.062106 0.130323
					CHANNELS 3 Zrotation Yrotation Xrotation
					End Site
					{
						OFFSET 0.000000 0.000000 0.000000
					}
				}
			}
		}
	}
	JOINT lowerback
	{
		OFFSET 0.004439 0.124404 -0.038385
		CHANNELS 3 Zrotation Yrotation Xrotation
		JOINT upperback
		{
			OFFSET 0.004488 0.137956 0.026820
			CHANNELS 3 Zrotation Yrotation Xrotation
			JOINT chest
			{
				OFFSET -0.002265 0.056032 0.002855
				CHANNELS 3 Zrotation Yrotation Xrotation
				JOINT lowerneck
				{
					OFFSET -0.013390 0.211636 -0.033468
					CHANNELS 3 Zrotation Yrotation Xrotation
					JOINT upperneck
					{
						OFFSET 0.010113 0.088937 0.050410
						CHANNELS 3 Zrotation Yrotation Xrotation
						End Site
						{
							OFFSET 0.000000 0.000000 0.000000
						}
					}
				}
				JOINT lclavicle
				{
					OFFSET 0.071702 0.114000 -0.018898
					CHANNELS 3 Zrotation Yrotation Xrotation
					JOINT lshoulder
					{
						OFFSET 0.122921 0.045205 -0.019046
						CHANNELS 3 Zrotation Yrotation Xrotation
						JOINT lelbow
						{
							OFFSET 0.255332 -0.015649 -0.022946
							CHANNELS 3 Zrotation Yrotation Xrotation
							JOINT lwrist
							{
								OFFSET 0.265709 0.012698 -0.007375
								CHANNELS 3 Zrotation Yrotation Xrotation
								End Site
								{
									OFFSET 0.000000 0.000000 0.000000
								}
							}
						}
					}
				}
				JOINT rclavicle
				{
					OFFSET -0.082954 0.112472 -0.023707
					CHANNELS 3 Zrotation Yrotation Xrotation
					JOINT rshoulder
					{
						OFFSET -0.113228 0.046853 -0.008472
						CHANNELS 3 Zrotation Yrotation Xrotation
						JOINT relbow
						{
							OFFSET -0.260127 -0.014369 -0.031269
							CHANNELS 3 Zrotation Yrotation Xrotation
							JOINT rwrist
							{
								OFFSET -0.269108 0.006794 -0.006027
								CHANNELS 3 Zrotation Yrotation Xrotation
								End Site
								{
									OFFSET 0.000000 0.000000 0.000000
								}
							}
						}
					}
				}
			}
		}
	}
}
MOTION
Frames: 14
Frame Time: 0.033333
-0.208305 0.307770 0.990429 20.185605 0.410928 86.065261 0.146050 0.623203 10.078663 -2.717949 -11.620353 2.842309 2.989727 7.571723 -17.589780 0.000000 -0.000000 0.000000 -2.246935 -5.239515 1.551359 0.104217 -5.340219 15.310384 4.589002 -6.220067 -20.636726 0.000000 -0.000000 0.000000 1.883708 1.501382 7.795777 -0.814883 2.025515 -1.227886 0.790288 -0.192851 3.972050 -4.766618 19.983759 -10.242584 -7.019647 14.563856 7.395883 -29.171117 9.387077 -3.878948 -62.650045 -3.934409 6.434907 16.634892 -31.975670 -0.761295 5.573547 -5.032710 -9.526895 29.465506 -5.489257 1.489661 55.631703 2.529158 14.218883 -18.045173 31.455542 -7.323503 0.753435 4.550084 -5.168100 
-0.206030 0.309939 0.990255 20.520507 0.215965 86.101682 -0.303245 0.368725 9.900174 -2.684654 -11.771686 2.863813 3.124628 7.667730 -17.473534 0.000000 -0.000000 0.000000 -2.674056 -5.136326 1.454352 0.236876 -5.457622 15.303778 4.659887 -6.646185 -20.702585 0.000000 -0.000000 0.000000 1.710568 1.483794 7.711483 -0.963855 1.965395 -1.134883 0.727811 -0.135556 4.098130 -4.799518 20.142291 -10.431158 -7.060458 14.652712 7.236878 -29.042235 9.133137 -3.722544 -62.778179 -4.175830 6.498106 16.805572 -32.009425 -0.724414 5.554344 -5.011125 -9.883209 29.428105 -5.413024 1.450076 55.750842 2.581650 14.506610 -18.497724 31.975119 -7.257801 0.663344 4.593243 -5.212518 
-0.204286 0.312440 0.989880 20.792687 0.094057 86.184907 -0.591583 0.273036 9.491690 -2.770534 -11.792977 3.168171 3.218357 7.675516 -17.294865 0.000000 -0.000000 0.000000 -2.971313 -5.186185 1.027948 0.222541 -5.577514 15.745579 4.593619 -6.807119 -20.898750 0.000000 -0.000000 0.000000 1.609385 1.567283 7.826520 -1.151936 1.915323 -1.213797 0.601257 -0.257606 4.138636 -4.759104 20.238263 -10.572240 -6.958124 14.889906 6.876800 -28.923610 9.076317 -3.691485 -62.911733 -4.163331 6.489323 17.216932 -32.443843 -0.817836 5.376676 -4.907496 -10.002193 29.334965 -5.271532 1.483032 55.768006 2.500054 14.742537 -18.644092 32.861949 -7.099791 0.896555 4.384314 -5.386124 
-0.201482 0.315783 0.989416 21.252277 -0.025261 86.167446 -0.873733 0.244403 9.176431 -2.968265 -11.947137 3.388811 3.369895 7.502443 -17.100249 0.000000 -0.000000 0.000000 -3.432001 -5.677463 0.474397 0.183152 -5.659204 16.633390 4.705039 -6.572329 -21.117787 0.000000 -0.000000 0.000000 1.648303 1.840598 7.959539 -1.345565 1.808624 -1.137837 0.387979 -0.326458 4.198722 -4.834876 20.164592 -10.792535 -6.750114 14.797004 6.578019 -28.745208 8.781033 -3.693477 -63.024300 -4.296379 6.519527 17.055089 -32.509728 -0.834427 5.348360 -4.821853 -10.251601 29.248116 -5.204859 1.525804 55.838495 2.484121 14.624982 -18.917658 33.400890 -7.244665 1.006955 4.415523 -5.492435 
-0.199517 0.317800 0.989280 21.753124 -0.062993 86.090177 -1.067838 0.246012 9.103422 -2.897449 -12.151495 3.431453 3.469252 7.362237 -17.062537 0.000000 -0.000000 0.000000 -3.623398 -5.780360 0.396569 0.094380 -5.911311 16.928031 4.772266 -6.659696 -21.160526 0.000000 -0.000000 0.000000 1.717125 1.765420 8.195202 -1.459233 1.728195 -1.228312 0.271896 -0.339246 4.239137 -4.917330 20.073327 -10.874233 -6.720327 14.701908 6.461712 -28.760418 8.758113 -3.825319 -63.056916 -4.340747 6.538167 16.984916 -32.610449 -0.745617 5.397318 -4.854723 -10.157011 29.108960 -5.228666 1.471168 55.913041 2.450588 14.578987 -18.960769 33.530911 -7.389594 0.913221 4.422695 -5.518197 
-0.196666 0.320499 0.988797 22.349093 -0.239158 85.982255 -1.324075 0.266210 9.062597 -3.066779 -12.500954 3.388340 3.614054 7.047787 -16.970690 0.000000 -0.000000 0.000000 -4.027095 -6.015273 0.164985 -0.024403 -6.095992 17.544990 4.734172 -6.848532 -21.387139 0.000000 -0.000000 0.000000 1.665111 1.711860 8.284549 -1.589856 1.584006 -1.076300 0.121859 -0.373103 4.255946 -4.905872 19.901426 -10.806465 -6.789401 14.644367 6.072258 -28.819496 8.633512 -3.837798 -63.057990 -4.335535 6.523699 17.026774 -32.757263 -0.803632 5.450174 -4.549973 -10.327227 29.117473 -4.976568 1.568394 55.836051 2.501834 14.419422 -19.120924 33.405734 -7.736772 0.785262 4.239654 -5.466499 
-0.193326 0.323271 0.988195 22.952518 -0.314704 85.846695 -1.484043 0.347506 9.011213 -3.243082 -12.783774 3.461546 3.593117 6.683962 -16.850625 0.000000 -0.000000 0.000000 -4.368213 -6.302865 0.087132 -0.167758 -6.221253 17.966743 4.831192 -6.894214 -21.419439 0.000000 -0.000000 0.000000 1.690777 1.781835 8.393138 -1.661506 1.594996 -1.011589 0.077534 -0.395468 4.292267 -4.892205 19.644356 -10.757639 -6.672702 14.426221 6.205435 -28.909070 8.398496 -3.787944 -63.147576 -4.387348 6.634632 16.883371 -32.677913 -0.553770 5.540041 -4.643024 -10.202872 29.066542 -4.905286 1.635894 55.528973 2.403778 14.307426 -19.050219 33.231603 -7.833538 0.837132 4.287935 -5.345065 
-0.190363 0.326006 0.987723 23.601617 -0.288930 85.662586 -1.472594 0.336626 8.943419 -3.576059 -12.972188 3.671927 3.657045 6.397150 -16.896064 0.000000 -0.000000 0.000000 -4.790840 -6.642634 0.189917 -0.009713 -6.587838 18.264738 4.984140 -6.713860 -21.477827 0.000000 -0.000000 0.000000 1.818865 1.928347 8.495616 -1.730296 1.562585 -0.858784 -0.019598 -0.397128 4.327201 -4.861321 19.334809 -10.616158 -6.483971 14.168774 6.124930 -28.768933 8.317254 -3.739546 -63.480383 -4.547668 6.661404 16.971257 -32.756006 -0.546370 5.397248 -4.711579 -10.078389 28.958499 -4.886305 1.668525 55.514613 2.302712 14.040044 -19.141660 32.848873 -7.783116 1.191288 4.390401 -5.036591 
-0.187334 0.328151 0.987460 23.948120 -0.160449 85.387321 -1.461446 0.343650 9.195473 -3.669089 -13.080270 3.596602 3.688122 6.312293 -16.840810 0.000000 -0.000000 0.000000 -4.927492 -6.772100 0.470811 -0.033734 -6.693029 18.324185 5.058583 -6.763591 -21.343940 0.000000 -0.000000 0.000000 1.969758 2.011233 8.473248 -1.694279 1.639340 -0.547943 -0.046454 -0.266205 4.416831 -4.804358 19.000608 -10.379784 -6.406473 13.912083 6.002953 -28.711946 8.121518 -3.603444 -63.527930 -4.497125 6.805623 16.794734 -33.019083 -0.220319 5.209774 -4.756986 -10.328580 28.856117 -4.707077 1.856930 55.302675 2.265827 13.878922 -18.732289 32.592401 -7.625432 1.367284 4.116803 -5.119366 
-0.183249 0.331199 0.987467 24.212581 -0.200949 85.075194 -1.766204 0.297710 9.390674 -3.777305 -13.227555 3.679477 3.923219 6.353533 -16.782562 0.000000 -0.000000 0.000000 -5.177482 -6.680555 0.782356 -0.205566 -6.705272 18.251949 5.178408 -6.943090 -21.167434 0.000000 -0.000000 0.000000 1.900234 2.111764 8.572136 -1.695532 1.875951 -0.416727 -0.002812 -0.151723 4.416716 -4.610256 18.575064 -9.920630 -6.317453 13.654330 5.909242 -28.708761 8.286542 -3.456300 -63.602154 -4.474697 6.870979 16.615170 -33.203666 -0.121415 4.661706 -4.627021 -11.009653 28.657377 -4.502326 2.044827 55.482682 2.290772 13.759581 -18.757123 31.515004 -7.793915 1.685033 3.987922 -5.316267 
-0.180809 0.333289 0.987317 24.219968 -0.002239 84.918882 -1.730117 0.275024 9.416113 -3.809628 -13.147342 3.760764 3.955316 6.319473 -16.765385 0.000000 -0.000000 0.000000 -5.232631 -6.829165 1.004846 -0.122037 -6.689459 18.047434 5.251054 -6.698240 -20.910334 0.000000 -0.000000 0.000000 2.016084 2.286296 8.476408 -1.629977 1.988031 -0.198955 0.046350 0.055340 4.451855 -4.545385 18.306540 -9.724754 -6.278061 13.315709 5.790696 -28.670932 8.385367 -3.397558 -63.473564 -4.345561 6.856902 16.432382 -33.403692 -0.069983 4.590445 -4.616528 -11.065536 28.675439 -4.329814 2.259005 55.458997 2.393919 13.538916 -18.681159 30.841892 -7.957118 1.625466 3.790183 -5.185918 
-0.178524 0.335488 0.987233 24.051891 0.189318 84.810162 -1.776377 0.289058 9.417065 -3.741615 -13.018449 3.816057 3.932554 6.324785 -16.783424 0.000000 -0.000000 0.000000 -5.222001 -6.960908 1.020359 -0.210777 -6.671491 18.037496 5.438847 -6.494381 -20.755962 0.000000 -0.000000 0.000000 2.071247 2.503920 8.460489 -1.545020 2.130955 -0.169944 0.130812 0.221058 4.561932 -4.513362 18.149538 -9.751806 -6.256481 12.998117 5.712875 -28.629550 8.574783 -3.383115 -63.295112 -4.258829 6.802158 16.544315 -33.302828 0.101535 4.664096 -4.803226 -10.384049 28.737509 -4.214823 2.201764 55.443111 2.369663 13.465705 -18.681847 30.266087 -7.984022 1.597562 3.920327 -4.843283 
-0.176061 0.337755 0.987008 23.883965 0.171372 84.712843 -1.899200 0.276819 9.491592 -3.953800 -13.085170 3.722373 4.106905 6.479850 -16.716549 0.000000 -0.000000 0.000000 -5.611184 -6.985060 1.025202 0.058089 -6.576716 18.091331 5.413149 -6.391310 -20.730638 0.000000 -0.000000 0.000000 1.912404 2.565349 8.470873 -1.543792 2.311301 -0.081613 0.256794 0.352257 4.544138 -4.483600 17.905761 -9.838943 -6.153743 12.745641 5.643097 -28.573052 8.906179 -3.509254 -63.252129 -3.950615 6.630530 16.592165 -33.289582 -0.297724 4.554354 -4.578717 -10.633621 28.733506 -4.237783 2.249664 55.494187 2.331748 13.505028 -18.580049 30.338425 -7.895071 1.935433 3.784369 -4.758311 
-0.174300 0.340016 0.986740 23.616088 0.328563 84.554252 -1.853044 0.406341 9.527147 -3.984628 -12.990300 3.759245 4.156426 6.527523 -16.695007 0.000000 -0.000000 0.000000 -5.612505 -6.954764 1.022667 0.047556 -6.436060 18.173368 5.449672 -6.272435 -20.663884 0.000000 -0.000000 0.000000 1.916687 2.611179 8.588266 -1.502361 2.328718 -0.061171 0.275846 0.478363 4.592882 -4.301749 17.699532 -9.986407 -6.129323 12.452311 5.507223 -28.651156 8.954558 -3.486697 -62.759999 -3.642507 6.473867 17.056767 -33.040964 -0.554564 4.678749 -4.700694 -10.057877 29.032458 -4.036727 2.255788 55.359351 2.355413 13.548466 -18.402849 30.414191 -7.860438 1.921499 3.906858 -4.748899 
